<?xml version="1.0" encoding="UTF-8"?><svg id="Layer_2" xmlns="http://www.w3.org/2000/svg" viewBox="0 0 313.73 107.04"><defs><style>.cls-1{fill:#26247b;}.cls-2{fill:#db4752;}</style></defs><g id="Layer_1-2"><g id="AS_Logo_Round_Blue"><path class="cls-1" d="M58.04,56.23c.1.11.27.08.33-.06l.78-1.97c.06-.15-.08-.3-.23-.26l-2.04.52c-.14.04-.19.21-.1.31l1.26,1.45Z"/><path class="cls-1" d="M65.79,57.68l-16.72,4.61c-.19.05-.33.22-.33.42,0,.2.12.38.31.44.07.02,1.78.6,4.08.98,1.31.22,2.52.32,3.63.32,1.55,0,2.9-.21,4.06-.62,4.16-1.5,5.48-5.41,5.53-5.58.05-.16.01-.33-.1-.45-.12-.12-.29-.17-.45-.12M64.27,60.14c-.78,1.04-1.99,2.2-3.77,2.85-2.34.84-5.32.6-7.62.19l-.34-.9,11.79-3.25-.05,1.12Z"/><path class="cls-1" d="M57.46,52.12c.26-.07.42-.33.35-.59-.07-.26-.33-.42-.59-.35-.26.07-.42.33-.35.59.07.26.33.42.59.35"/><path class="cls-1" d="M55.44,52.83c.26-.07.42-.33.35-.59-.07-.26-.33-.42-.59-.35-.26.07-.42.33-.35.59.07.26.33.42.59.35"/><path class="cls-1" d="M55.71,50.76c.26-.07.42-.33.35-.59-.07-.26-.33-.42-.59-.35-.26.07-.42.33-.35.59.07.26.33.42.59.35"/><path class="cls-1" d="M54.37,57.66l-7.48-8.89c-.25-.29-.72-.09-.68.29l1.23,11.71c.03.26.3.42.54.31l6.25-2.82c.23-.11.3-.41.14-.6M49.07,54.42c-.56.14-1.13-.2-1.27-.76-.14-.56.2-1.13.76-1.27.56-.14,1.13.2,1.27.76.14.56-.2,1.13-.76,1.27"/><path class="cls-1" d="M59.38,51.83c.26-.07.42-.33.35-.59-.07-.26-.33-.42-.59-.35-.26.07-.42.33-.35.59.07.26.33.42.59.35"/><path class="cls-1" d="M58.15,50.14c.26-.07.42-.33.35-.59-.07-.26-.33-.42-.59-.35-.26.07-.42.33-.35.59.07.26.33.42.59.35"/><path class="cls-1" d="M47.6,45.4l-1.7-1.79c-.07-.08-.2-.07-.27.01l-3.77,4.97c-.05.07-.05.16,0,.22l.87.96c.06.07.17.08.25.01l4.6-4.14c.07-.07.08-.18,0-.25"/><path class="cls-1" d="M66.49,43.9l-4.31-3.22c-.1-.07-.24-.02-.27.1l-.5,2.06c-.02.08.02.17.1.2l4.71,1.99c.11.04.23-.02.24-.14l.1-.82c0-.06-.02-.12-.07-.16"/><path class="cls-1" d="M65.57,56.16c.23,0,.41-.22.37-.45l-1.57-9.68c-.07-.43-.68-.44-.76-.01l-1.93,9.78c-.05.24.14.47.39.46l3.5-.1ZM63.99,48.7c.29,0,.53.24.53.53s-.24.53-.53.53-.53-.24-.53-.53.24-.53.53-.53"/><path class="cls-1" d="M51.14,3.58c-3.92-3.09-9.18-4.39-14.38-3.06-4.29,1.1-7.91,3.8-10.17,7.61-.33.56-.63,1.14-.89,1.73C9.84,18.69,0,35.42,0,53.56c0,13.36,5.2,25.91,14.64,35.35,9.44,9.44,22,14.64,35.36,14.64,3.09,0,6.13-.28,9.11-.83l1.84,2.98c.52.85,1.4,1.33,2.35,1.33.24,0,.48-.03.72-.09,1.21-.31,2.03-1.31,2.1-2.55l.19-3.54c7.09-2.44,13.6-6.48,19.06-11.94,9.44-9.44,14.64-22,14.64-35.35s-5.08-25.61-14.3-35.01c-9.19-9.37-21.46-14.68-34.56-14.98M46.32,22.57c-.7-.73-1.47-1.39-2.28-1.97.67-.77,1.41-1.47,2.22-2.08.36-.27.43-.78.16-1.14-.27-.36-.78-.43-1.14-.16-.44.33-.85.68-1.26,1.06-1.21.94-2.02.82-3.94.21-3.11-1.15-6.54-1.37-9.86-.52-1.44.37-2.79.91-4.03,1.61-.75-3.65-.12-7.4,1.79-10.62,2.04-3.44,5.3-5.88,9.17-6.86,8-2.04,16.16,2.81,18.2,10.8.08.31.15.63.21.95-.56,0-1.13,0-1.69.06-.45.04-.78.44-.74.88.04.45.44.78.88.74,3.49-.31,7.01.64,9.89,2.67,2.92,2.05,5.01,5.08,5.89,8.54.54,2.11.61,4.24.23,6.35-1.31-.19-3.23-.23-6.09.03-3.01.27-6.57.81-10.41,1.59-.67-.17-1.91-.68-2.71-2.27-.08-.83-.23-1.66-.44-2.49-.26-1.02-.62-2.02-1.06-2.97-.19-.41-.68-.58-1.08-.39-.41.19-.58.68-.39,1.08.4.86.73,1.76.96,2.68.45,1.75.57,3.52.38,5.29-1.05.25-2.11.5-3.19.78-6.66,1.7-12.81,3.72-17.33,5.69-2.27.99-3.83,1.84-4.9,2.57-1.92-1.9-3.29-4.28-3.96-6.93-2.04-8,2.81-16.16,10.8-18.2,5.22-1.33,10.78.26,14.51,4.15.31.32.83.34,1.15.02.32-.31.34-.83.02-1.15M50,101.94c-12.92,0-25.07-5.03-34.2-14.17C6.66,78.63,1.63,66.48,1.63,53.56,1.63,36.65,10.48,21,24.85,12.24c-.4,1.47-.6,2.98-.58,4.5C12.67,24.86,5.08,38.33,5.08,53.56c0,24.81,20.11,44.92,44.92,44.92,2.11,0,4.18-.15,6.21-.43l1.97,3.19c-2.68.45-5.41.69-8.19.69M65.47,86.1l-2.53-.34,2.66-1.95-.13,2.3ZM65.95,77.22l-5.51-.75,5.78-4.25-.27,5ZM66.29,71.06l-7.13,5.25-12.72-1.72c-.25-.03-.48.14-.51.39-.03.25.14.48.39.51l11.79,1.6-7.45,5.47c-.2.15-.24.43-.1.63.09.12.23.18.36.18.09,0,.19-.03.27-.09l8.2-6.03,6.51.88-.25,4.5-4.01,2.95-9.62-1.31c-.25-.03-.48.14-.51.39-.03.25.14.48.39.51l8.69,1.18-5.44,3.99c-.2.15-.25.43-.1.63.09.12.23.18.36.18.09,0,.19-.03.27-.09l6.19-4.55,3.53.48-.39,7.21-1.04.76-6.27-.85c-.25-.03-.48.14-.51.39-.03.25.14.48.39.51l5.34.73-3.28,2.4c-.2.15-.25.43-.1.63.09.12.23.18.37.18.09,0,.19-.03.27-.09l4.03-2.95.71.1-.45,8.29c-.03.63-.47.96-.87,1.06-.4.1-.94.02-1.28-.51L27.41,48.39h0s-.02-.03-.03-.05l-.23-.41h-.47c-2.67-.03-3.29-.47-3.4-.57.04-.16.28-.49.9-.96,0,0,0,0,0,0,.9-.69,2.59-1.7,5.61-2.99,4.4-1.87,10.3-3.79,16.63-5.41,6.32-1.61,12.43-2.75,17.18-3.22,3.83-.37,5.88-.2,6.86.03.01,0,.02,0,.03,0,.01,0,.02,0,.04,0,.39.1.6.21.68.3-.05.14-.38.83-2.71,2.13l-.41.23v.47s0,.04,0,.07l-1.8,33.03ZM84.2,87.77c-5.12,5.12-11.19,8.95-17.81,11.33l.21-3.78c16.59-6.6,28.32-22.81,28.32-41.75,0-22.91-17.15-41.81-39.31-44.57-.7-1.37-1.59-2.61-2.61-3.7,11.96.73,23.09,5.8,31.53,14.41,8.92,9.1,13.84,21.13,13.84,33.87s-5.03,25.07-14.17,34.2"/></g><path class="cls-1" d="M133.21,5.07l11.67,44.09h-9.26l-2.04-9.32h-11.73l-2.04,9.32h-9.26l11.67-44.09h10.99ZM132.04,32.55l-4.26-19.82h-.12l-4.26,19.82h8.64Z"/><path class="cls-1" d="M148.4,5.07h8.89v44.09h-8.89V5.07Z"/><path class="cls-1" d="M171.06,36.69c0,1.03.08,1.97.25,2.81.16.84.47,1.55.93,2.13.45.58,1.06,1.03,1.82,1.36.76.33,1.72.49,2.87.49,1.36,0,2.58-.44,3.67-1.33,1.09-.88,1.64-2.25,1.64-4.11,0-.99-.13-1.84-.4-2.56-.27-.72-.71-1.37-1.33-1.95-.62-.58-1.43-1.1-2.44-1.57-1.01-.47-2.25-.96-3.74-1.45-1.98-.66-3.68-1.38-5.12-2.16-1.44-.78-2.65-1.7-3.61-2.75-.97-1.05-1.68-2.26-2.13-3.64-.45-1.38-.68-2.97-.68-4.79,0-4.36,1.21-7.62,3.64-9.76,2.43-2.14,5.76-3.21,10-3.21,1.98,0,3.8.22,5.46.65,1.67.43,3.11,1.13,4.32,2.1,1.21.97,2.16,2.2,2.84,3.71.68,1.5,1.02,3.3,1.02,5.4v1.23h-8.52c0-2.1-.37-3.71-1.11-4.85-.74-1.13-1.98-1.7-3.71-1.7-.99,0-1.81.15-2.47.43-.66.29-1.18.67-1.57,1.14-.39.47-.66,1.02-.8,1.64-.15.62-.22,1.26-.22,1.91,0,1.36.29,2.5.86,3.43s1.81,1.78,3.71,2.56l6.85,2.96c1.69.74,3.07,1.51,4.14,2.32,1.07.8,1.92,1.67,2.56,2.59.64.93,1.08,1.94,1.33,3.06.25,1.11.37,2.35.37,3.7,0,4.65-1.35,8.04-4.04,10.16-2.7,2.12-6.45,3.18-11.27,3.18s-8.61-1.09-10.77-3.27c-2.16-2.18-3.24-5.31-3.24-9.39v-1.79h8.89v1.3Z"/><path class="cls-1" d="M204.28,35.82c0,1.11.07,2.13.22,3.06.14.93.41,1.73.8,2.41.39.68.93,1.21,1.61,1.61.68.39,1.53.59,2.56.59s1.93-.19,2.59-.59c.66-.39,1.18-.93,1.57-1.61s.66-1.48.8-2.41.22-1.95.22-3.06V5.07h8.89v30.75c0,2.8-.39,5.12-1.17,6.95-.78,1.83-1.83,3.28-3.15,4.35-1.32,1.07-2.82,1.79-4.51,2.16-1.69.37-3.44.56-5.25.56s-3.56-.17-5.25-.49c-1.69-.33-3.19-1-4.51-2.01-1.32-1.01-2.37-2.44-3.15-4.29-.78-1.85-1.17-4.26-1.17-7.22V5.07h8.89v30.75Z"/><path class="cls-1" d="M120.92,74.73h.12l11.24-17.66h9.63l-11.98,18.89,13.34,25.19h-10l-9.08-18.09-3.27,5v13.09h-8.89v-44.09h8.89v17.66Z"/><path class="cls-1" d="M153.52,87.82c0,1.11.07,2.13.22,3.06.14.93.41,1.73.8,2.41.39.68.93,1.21,1.61,1.61.68.39,1.53.59,2.56.59s1.93-.19,2.59-.59c.66-.39,1.18-.93,1.57-1.61s.66-1.48.8-2.41.22-1.95.22-3.06v-30.75h8.89v30.75c0,2.8-.39,5.12-1.17,6.95-.78,1.83-1.83,3.28-3.15,4.35-1.32,1.07-2.82,1.79-4.51,2.16-1.69.37-3.44.56-5.25.56s-3.56-.17-5.25-.49c-1.69-.33-3.19-1-4.51-2.01-1.32-1.01-2.37-2.44-3.15-4.29-.78-1.85-1.17-4.26-1.17-7.22v-30.75h8.89v30.75Z"/><path class="cls-1" d="M194.83,57.07c3.71,0,6.59.94,8.64,2.81,2.06,1.87,3.09,4.72,3.09,8.55,0,2.96-.6,5.38-1.79,7.26-1.19,1.87-3.05,3.08-5.56,3.61v.12c2.22.33,3.85,1.05,4.88,2.16,1.03,1.11,1.67,2.9,1.91,5.37.08.82.14,1.72.18,2.69.04.97.08,2.05.12,3.24.08,2.35.21,4.14.37,5.37.25,1.24.78,2.08,1.61,2.53v.37h-9.63c-.45-.62-.74-1.33-.86-2.13-.12-.8-.21-1.64-.25-2.5l-.25-8.46c-.08-1.73-.51-3.09-1.3-4.08-.78-.99-2.1-1.48-3.95-1.48h-4.75v18.65h-8.89v-44.09h16.42ZM191,76.34c2.14,0,3.79-.5,4.94-1.51,1.15-1.01,1.73-2.71,1.73-5.09,0-4.08-2.06-6.11-6.17-6.11h-4.2v12.72h3.71Z"/><path class="cls-1" d="M213.17,57.07h8.89v44.09h-8.89v-44.09Z"/><path class="cls-1" d="M242.07,57.07l6.3,31.12h.12l6.36-31.12h13.15v44.09h-8.15v-35.2h-.12l-7.84,35.2h-6.92l-7.84-35.2h-.12v35.2h-8.15v-44.09h13.21Z"/><path class="cls-1" d="M282.7,87.82c0,1.11.07,2.13.22,3.06.14.93.41,1.73.8,2.41.39.68.93,1.21,1.61,1.61.68.39,1.53.59,2.56.59s1.93-.19,2.59-.59c.66-.39,1.18-.93,1.57-1.61s.66-1.48.8-2.41.22-1.95.22-3.06v-30.75h8.89v30.75c0,2.8-.39,5.12-1.17,6.95-.78,1.83-1.83,3.28-3.15,4.35-1.32,1.07-2.82,1.79-4.51,2.16-1.69.37-3.44.56-5.25.56s-3.56-.17-5.25-.49c-1.69-.33-3.19-1-4.51-2.01-1.32-1.01-2.37-2.44-3.15-4.29-.78-1.85-1.17-4.26-1.17-7.22v-30.75h8.89v30.75Z"/><path class="cls-2" d="M228.56,5.1h4.05c1.67,0,2.92.54,3.74,1.61.83,1.07,1.24,2.63,1.24,4.67s-.41,3.6-1.24,4.67-2.08,1.61-3.74,1.61h-4.05V5.1ZM232.43,15.54c1.55,0,2.32-1.01,2.32-3.02v-2.29c0-2-.77-3.01-2.32-3.01h-1.21v8.32h1.21Z"/><path class="cls-2" d="M239.55,17.67v-2h2.7V7.1h-2.7v-2h8.1v2h-2.7v8.57h2.7v2h-8.1Z"/><path class="cls-2" d="M256.4,15.89h-.16c-.23.59-.57,1.07-1.04,1.44-.46.37-1.05.56-1.77.56-1.22,0-2.16-.56-2.82-1.68-.65-1.12-.98-2.69-.98-4.71,0-2.16.4-3.8,1.19-4.92.79-1.12,1.99-1.68,3.6-1.68,2.36,0,3.83,1.21,4.39,3.62l-2.52.61c-.17-.65-.39-1.15-.67-1.51s-.7-.54-1.26-.54c-.66,0-1.14.27-1.43.82-.29.55-.44,1.35-.44,2.4v2.05c0,1.08.16,1.91.49,2.49.32.58.86.87,1.6.87.59,0,1.04-.18,1.35-.53.31-.35.47-.82.47-1.4v-.92h-2.14v-1.91h4.55v6.71h-2.41v-1.78Z"/><path class="cls-2" d="M261.15,17.67v-2h2.7V7.1h-2.7v-2h8.1v2h-2.7v8.57h2.7v2h-8.1Z"/><path class="cls-2" d="M277.35,7.32v10.35h-2.7V7.32h-3.62v-2.21h9.94v2.21h-3.62Z"/><path class="cls-2" d="M289.23,17.67l-.79-3.02h-3.44l-.77,3.02h-2.74l3.4-12.56h3.82l3.4,12.56h-2.88ZM286.8,7.71h-.14l-1.22,4.75h2.59l-1.22-4.75Z"/><path class="cls-2" d="M293.86,17.67V5.1h2.72v10.35h5.4v2.21h-8.12Z"/><path class="cls-2" d="M229.06,33.67v-12.56h2.72v10.35h5.4v2.21h-8.12Z"/><path class="cls-2" d="M239.55,33.67v-2h2.7v-8.57h-2.7v-2h8.1v2h-2.7v8.57h2.7v2h-8.1Z"/><path class="cls-2" d="M255.76,23.32v10.35h-2.7v-10.35h-3.62v-2.21h9.94v2.21h-3.62Z"/><path class="cls-2" d="M261.25,33.67v-12.56h8.03v2.21h-5.33v2.88h5.15v2.21h-5.15v3.04h5.33v2.21h-8.03Z"/><path class="cls-2" d="M274.64,33.67h-2.66v-12.56h4.86c1.22,0,2.17.36,2.84,1.07.67.71,1.01,1.69,1.01,2.93,0,.89-.2,1.65-.58,2.29-.39.64-.93,1.06-1.63,1.25l2.47,5.02h-2.95l-2.11-4.66h-1.24v4.66ZM276.18,26.92c.62,0,1.06-.12,1.31-.36.25-.24.38-.64.38-1.19v-.54c0-.55-.13-.95-.38-1.19-.25-.24-.69-.36-1.31-.36h-1.55v3.64h1.55Z"/><path class="cls-2" d="M289.23,33.67l-.79-3.02h-3.44l-.77,3.02h-2.74l3.4-12.56h3.82l3.4,12.56h-2.88ZM286.8,23.71h-.14l-1.22,4.75h2.59l-1.22-4.75Z"/><path class="cls-2" d="M294.18,32.21c-.82-1.12-1.23-2.72-1.23-4.82s.41-3.71,1.23-4.82c.82-1.12,2.06-1.67,3.72-1.67,2.41,0,3.89,1.21,4.45,3.62l-2.52.61c-.16-.67-.38-1.18-.67-1.53-.29-.35-.73-.52-1.31-.52-.71,0-1.22.28-1.54.83-.32.55-.48,1.35-.48,2.39v2.2c0,1.04.16,1.84.48,2.39.32.55.83.83,1.54.83.59,0,1.03-.17,1.31-.52s.51-.86.67-1.53l2.52.61c-.55,2.41-2.03,3.62-4.45,3.62-1.66,0-2.9-.56-3.72-1.67Z"/><path class="cls-2" d="M307.05,33.67v-4.45l-3.98-8.12h3.01l1.33,2.92.97,2.47h.14l.97-2.47,1.33-2.92h2.9l-3.98,8.12v4.45h-2.7Z"/><path class="cls-2" d="M228.85,49.67v-12.56h8.33v2.21h-5.63v2.88h5.04v2.21h-5.04v5.26h-2.7Z"/><path class="cls-2" d="M239.91,48.21c-.81-1.12-1.21-2.72-1.21-4.82s.4-3.71,1.21-4.82c.81-1.12,2.04-1.67,3.7-1.67s2.89.56,3.7,1.67c.81,1.12,1.22,2.72,1.22,4.82s-.41,3.71-1.22,4.82c-.81,1.12-2.04,1.67-3.7,1.67s-2.89-.56-3.7-1.67ZM245.17,46.89c.31-.55.47-1.35.47-2.42v-2.18c0-1.07-.16-1.87-.47-2.41-.31-.54-.83-.81-1.57-.81s-1.25.27-1.57.81c-.31.54-.47,1.34-.47,2.41v2.2c0,1.07.16,1.87.47,2.41.31.54.83.81,1.57.81s1.25-.27,1.57-.82Z"/><path class="cls-2" d="M253.04,49.67h-2.66v-12.56h4.86c1.22,0,2.17.36,2.84,1.07.67.71,1.01,1.69,1.01,2.93,0,.89-.2,1.65-.58,2.29-.39.64-.93,1.06-1.63,1.25l2.47,5.02h-2.95l-2.11-4.66h-1.24v4.66ZM254.59,42.92c.62,0,1.06-.12,1.31-.36.25-.24.38-.64.38-1.19v-.54c0-.55-.13-.95-.38-1.19-.25-.24-.69-.36-1.31-.36h-1.55v3.64h1.55Z"/><path class="cls-2" d="M275.64,44.43l-1.12,1.57v3.67h-2.7v-12.56h2.7v5.26h.14l1.37-2.09,2.21-3.17h3.02l-3.76,5.31,3.94,7.25h-3.04l-2.77-5.24Z"/><path class="cls-2" d="M282.75,49.67v-2h2.7v-8.57h-2.7v-2h8.1v2h-2.7v8.57h2.7v2h-8.1Z"/><path class="cls-2" d="M293.36,37.1h4.05c1.67,0,2.92.54,3.74,1.61.83,1.07,1.24,2.63,1.24,4.67s-.41,3.6-1.24,4.67-2.08,1.61-3.74,1.61h-4.05v-12.56ZM297.23,47.54c1.55,0,2.32-1.01,2.32-3.02v-2.29c0-2-.77-3.01-2.32-3.01h-1.21v8.32h1.21Z"/><path class="cls-2" d="M305.49,49.37c-.79-.34-1.43-.82-1.93-1.43l1.57-1.73c.44.49.94.86,1.49,1.11.55.25,1.11.37,1.68.37.64,0,1.12-.14,1.47-.43s.51-.7.51-1.24c0-.44-.13-.78-.39-1.01-.26-.23-.69-.39-1.3-.49l-1.31-.22c-1.08-.18-1.88-.59-2.41-1.22-.53-.63-.79-1.42-.79-2.38,0-1.2.4-2.14,1.19-2.81.79-.67,1.9-1.01,3.33-1.01.94,0,1.77.15,2.5.44.73.29,1.33.71,1.78,1.23l-1.53,1.71c-.34-.38-.74-.68-1.21-.88s-.98-.31-1.53-.31c-1.21,0-1.82.5-1.82,1.49,0,.42.13.74.4.96s.71.39,1.33.5l1.31.23c1.02.18,1.81.57,2.36,1.17s.83,1.39.83,2.36c0,.79-.18,1.5-.55,2.12s-.91,1.1-1.64,1.45c-.73.35-1.6.52-2.62.52s-1.93-.17-2.72-.51Z"/></g></svg>