<?xml version="1.0" encoding="UTF-8"?><svg id="Layer_2" xmlns="http://www.w3.org/2000/svg" xmlns:xlink="http://www.w3.org/1999/xlink" viewBox="0 0 100 107.04"><defs><style>.cls-1{fill:none;}.cls-2{clip-path:url(#clippath-1);}.cls-3{fill:#fff;}.cls-4{fill:#26247b;}.cls-5{clip-path:url(#clippath);}</style><clipPath id="clippath"><rect class="cls-1" y="0" width="100" height="107.04"/></clipPath><clipPath id="clippath-1"><rect class="cls-1" y="0" width="100" height="107.04"/></clipPath></defs><g id="Layer_1-2"><g id="AS_Logo_Round_Blue"><g class="cls-5"><g class="cls-2"><path class="cls-3" d="M50.71,4.11c-3.73-2.97-8.76-4.23-13.74-2.96-4.92,1.26-8.71,4.7-10.58,9.03C11.19,18.56.89,34.73.89,53.3c0,27.17,22.02,49.19,49.19,49.19,3.2,0,6.33-.31,9.37-.89l2.19,3.54c1.02,1.65,3.55,1,3.65-.93l.23-4.19c19.61-6.48,33.75-24.94,33.75-46.72,0-26.96-21.69-48.85-48.57-49.19"/><path class="cls-4" d="M58.04,56.23c.1.11.27.08.33-.06l.78-1.97c.06-.15-.08-.3-.23-.26l-2.04.52c-.14.04-.19.21-.1.31l1.26,1.45Z"/><path class="cls-4" d="M65.79,57.68l-16.72,4.61c-.19.05-.33.22-.33.42,0,.2.12.38.31.44.07.02,1.78.6,4.08.98,1.31.22,2.52.32,3.63.32,1.55,0,2.9-.21,4.06-.62,4.16-1.5,5.48-5.41,5.53-5.58.05-.16.01-.33-.1-.45-.12-.12-.29-.17-.45-.12M64.27,60.14c-.78,1.04-1.99,2.2-3.77,2.85-2.34.84-5.32.6-7.62.19l-.34-.9,11.79-3.25-.05,1.12Z"/><path class="cls-4" d="M57.46,52.12c.26-.07.42-.33.35-.59-.07-.26-.33-.42-.59-.35-.26.07-.42.33-.35.59.07.26.33.42.59.35"/><path class="cls-4" d="M55.44,52.83c.26-.07.42-.33.35-.59-.07-.26-.33-.42-.59-.35-.26.07-.42.33-.35.59.07.26.33.42.59.35"/><path class="cls-4" d="M55.71,50.76c.26-.07.42-.33.35-.59-.07-.26-.33-.42-.59-.35-.26.07-.42.33-.35.59.07.26.33.42.59.35"/><path class="cls-4" d="M54.37,57.66l-7.48-8.89c-.25-.29-.72-.09-.68.29l1.23,11.71c.03.26.3.42.54.31l6.25-2.82c.23-.11.3-.41.14-.6M49.07,54.42c-.56.14-1.13-.2-1.27-.76-.14-.56.2-1.13.76-1.27.56-.14,1.13.2,1.27.76.14.56-.2,1.13-.76,1.27"/><path class="cls-4" d="M59.38,51.83c.26-.07.42-.33.35-.59-.07-.26-.33-.42-.59-.35-.26.07-.42.33-.35.59.07.26.33.42.59.35"/><path class="cls-4" d="M58.15,50.14c.26-.07.42-.33.35-.59-.07-.26-.33-.42-.59-.35-.26.07-.42.33-.35.59.07.26.33.42.59.35"/><path class="cls-4" d="M47.6,45.4l-1.7-1.79c-.07-.08-.2-.07-.27.01l-3.77,4.97c-.05.07-.05.16,0,.22l.87.96c.06.07.17.08.25.01l4.6-4.14c.07-.07.08-.18,0-.25"/><path class="cls-4" d="M66.49,43.9l-4.31-3.22c-.1-.07-.24-.02-.27.1l-.5,2.06c-.02.08.02.17.1.2l4.71,1.99c.11.04.23-.02.24-.14l.1-.82c0-.06-.02-.12-.07-.16"/><path class="cls-4" d="M65.57,56.16c.23,0,.41-.22.37-.45l-1.57-9.68c-.07-.43-.68-.44-.76-.01l-1.93,9.78c-.05.24.14.47.39.46l3.5-.1ZM63.99,48.7c.29,0,.53.24.53.53s-.24.53-.53.53-.53-.24-.53-.53.24-.53.53-.53"/><path class="cls-4" d="M51.14,3.58c-3.92-3.09-9.18-4.39-14.38-3.06-4.29,1.1-7.91,3.8-10.17,7.61-.33.56-.63,1.14-.89,1.73C9.84,18.69,0,35.42,0,53.56,0,66.92,5.2,79.48,14.64,88.92c9.44,9.44,22,14.64,35.36,14.64,3.09,0,6.13-.28,9.11-.83l1.84,2.98c.52.85,1.4,1.33,2.35,1.33.24,0,.48-.03.72-.09,1.21-.31,2.03-1.31,2.1-2.55l.19-3.54c7.09-2.44,13.6-6.48,19.06-11.94,9.44-9.44,14.64-22,14.64-35.35s-5.08-25.61-14.3-35.01c-9.19-9.37-21.46-14.68-34.56-14.98M46.32,22.57c-.7-.73-1.47-1.39-2.28-1.97.67-.77,1.41-1.47,2.22-2.08.36-.27.43-.78.16-1.14-.27-.36-.78-.43-1.14-.16-.44.33-.85.68-1.26,1.06-1.21.94-2.02.82-3.94.21-3.11-1.15-6.54-1.37-9.86-.52-1.44.37-2.79.91-4.03,1.61-.75-3.65-.12-7.4,1.79-10.62,2.04-3.44,5.3-5.88,9.17-6.86,8-2.04,16.16,2.81,18.2,10.8.08.31.15.63.21.95-.56,0-1.13,0-1.69.06-.45.04-.78.44-.74.88.04.45.44.78.88.74,3.49-.31,7.01.64,9.89,2.67,2.92,2.05,5.01,5.08,5.89,8.54.54,2.11.61,4.24.23,6.35-1.31-.19-3.23-.23-6.09.03-3.01.27-6.57.81-10.41,1.59-.67-.17-1.91-.68-2.71-2.27-.08-.83-.23-1.66-.44-2.49-.26-1.02-.62-2.02-1.06-2.97-.19-.41-.68-.58-1.08-.39-.41.19-.58.68-.39,1.08.4.86.73,1.76.96,2.68.45,1.75.57,3.52.38,5.29-1.05.25-2.11.5-3.19.78-6.66,1.7-12.81,3.72-17.33,5.69-2.27.99-3.83,1.84-4.9,2.57-1.92-1.9-3.29-4.28-3.96-6.93-2.04-8,2.81-16.16,10.8-18.2,5.22-1.33,10.78.26,14.51,4.15.31.32.83.34,1.15.02.32-.31.34-.83.02-1.15M50,101.94c-12.92,0-25.07-5.03-34.2-14.17C6.66,78.63,1.63,66.48,1.63,53.56,1.63,36.65,10.48,21,24.85,12.24c-.4,1.47-.6,2.98-.58,4.5C12.67,24.86,5.08,38.33,5.08,53.56c0,24.81,20.11,44.92,44.92,44.92,2.11,0,4.18-.15,6.21-.43l1.97,3.19c-2.68.45-5.41.69-8.19.69M65.47,86.1l-2.53-.34,2.66-1.95-.13,2.3ZM65.95,77.22l-5.51-.75,5.78-4.25-.27,5ZM66.29,71.06l-7.13,5.25-12.72-1.72c-.25-.03-.48.14-.51.39-.03.25.14.48.39.51l11.79,1.6-7.45,5.47c-.2.15-.24.43-.1.63.09.12.23.18.36.18.09,0,.19-.03.27-.09l8.2-6.03,6.51.88-.25,4.5-4.01,2.95-9.62-1.31c-.25-.03-.48.14-.51.39-.03.25.14.48.39.51l8.69,1.18-5.44,3.99c-.2.15-.25.43-.1.63.09.12.23.18.36.18.09,0,.19-.03.27-.09l6.19-4.55,3.53.48-.39,7.21-1.04.76-6.27-.85c-.25-.03-.48.14-.51.39-.03.25.14.48.39.51l5.34.73-3.28,2.4c-.2.15-.25.43-.1.63.09.12.23.18.37.18.09,0,.19-.03.27-.09l4.03-2.95.71.1-.45,8.29c-.03.63-.47.96-.87,1.06-.4.1-.94.02-1.28-.51L27.41,48.39h0s-.02-.03-.03-.05l-.23-.41h-.47c-2.67-.03-3.29-.47-3.4-.57.04-.16.28-.49.9-.96,0,0,0,0,0,0,.9-.69,2.59-1.7,5.61-2.99,4.4-1.87,10.3-3.79,16.63-5.41,6.32-1.61,12.43-2.75,17.18-3.22,3.83-.37,5.88-.2,6.86.03.01,0,.02,0,.03,0,.01,0,.02,0,.04,0,.39.1.6.21.68.3-.05.14-.38.83-2.71,2.13l-.41.23v.47s0,.04,0,.07l-1.8,33.03ZM84.2,87.77c-5.12,5.12-11.19,8.95-17.81,11.33l.21-3.78c16.59-6.6,28.32-22.81,28.32-41.75,0-22.91-17.15-41.81-39.31-44.57-.7-1.37-1.59-2.61-2.61-3.7,11.96.73,23.09,5.8,31.53,14.41,8.92,9.1,13.84,21.13,13.84,33.87s-5.03,25.07-14.17,34.2"/></g></g></g></g></svg>